<svg xmlns="http://www.w3.org/2000/svg" version="1.1" xmlns:xlink="http://www.w3.org/1999/xlink" width="512" height="512" x="0" y="0" viewBox="0 0 512 512" style="enable-background:new 0 0 512 512" xml:space="preserve">
<g>
<path fill="#4182c3" d="M256 352V208h-80v192h168v-48z"></path>
<path fill="#c9363c" d="M176 208v192H48V208z"></path>
<path fill="#af1d38" d="M48 400v-96h96v64c0 17.673 14.327 32 32 32z"></path>
<path fill="#555a6e" d="M176 208h32v192h-32z"></path>
<path fill="#463c4b" d="M176 304h32v96h-32z"></path>
<path fill="#555a6e" d="M176 328a8 8 0 0 1-8-8v-32a8 8 0 0 1 8-8h32a8 8 0 0 1 8 8v32a8 8 0 0 1-8 8z"></path>
<path fill="#faa019" d="M208 288v32h-32v-32zm0-16h-32c-8.836 0-16 7.164-16 16v32c0 8.836 7.164 16 16 16h32c8.836 0 16-7.164 16-16v-32c0-8.836-7.164-16-16-16z"></path>
<path fill="#463c4b" d="M80 336v32c0 17.673-14.327 32-32 32-8.837 0-16-7.163-16-16v-64c0-8.837 7.163-16 16-16 17.673 0 32 14.327 32 32z"></path>
<path fill="#555a6e" d="M80 240v32c0 17.673-14.327 32-32 32-8.837 0-16-7.163-16-16v-64c0-8.837 7.163-16 16-16 17.673 0 32 14.327 32 32z"></path>
<path fill="#4182c3" d="M176 176h80v32H144c0-17.673 14.327-32 32-32z"></path>
<path fill="#f0915a" d="m249.693 162.908 5.657 5.657 33.941-33.941-5.657-5.657c-9.373-9.373-24.569-9.373-33.941 0-9.373 9.373-9.373 24.569 0 33.941zM396.771 309.987l-5.657-5.657 33.941-33.941 5.657 5.657c9.373 9.373 9.373 24.569 0 33.941-9.372 9.372-24.568 9.372-33.941 0z"></path>
<path fill="#d7e6f0" d="m398.404 297.04 26.651-26.651-135.764-135.765-26.651 26.651c-15.013.94-29.758 7.131-41.231 18.604-12.901 12.901-19.125 29.939-18.707 46.844l-.019-.019 2.731 111.959.015.015c.1 3.958 1.646 7.886 4.667 10.907s6.949 4.567 10.907 4.667l.015.015 111.959 2.731-.019-.019c16.905.417 33.943-5.806 46.844-18.707 11.471-11.474 17.662-26.219 18.602-41.232z"></path>
<path fill="#a5c3dc" d="m398.404 297.04 26.651-26.651-67.882-67.882-147.078 147.078c3.021 3.021 6.949 4.567 10.907 4.667l.015.015 111.959 2.731-.019-.019c16.905.417 33.943-5.806 46.844-18.707 11.472-11.474 17.663-26.219 18.603-41.232z"></path>
<path fill="#fab991" d="m376.766 273.423 25.662-25.662-90.51-90.51-25.662 25.662c-10.674-2.848-22.533-.095-30.906 8.279-12.497 12.497-12.497 32.758 0 45.255l67.882 67.882c12.497 12.497 32.758 12.497 45.255 0 8.374-8.373 11.127-20.231 8.279-30.906z"></path>
<path fill="#f0915a" d="m376.766 273.423 25.662-25.662-45.255-45.255-67.882 67.882 33.941 33.941c12.497 12.497 32.758 12.497 45.255 0 8.374-8.373 11.127-20.231 8.279-30.906z"></path>
<path fill="#e67850" d="m294.948 276.046-11.314-11.314c-9.373-9.373-9.373-24.569 0-33.941 9.373-9.373 24.569-9.373 33.941 0l11.314 11.314c9.373 9.373 9.373 24.569 0 33.941-9.373 9.372-24.569 9.372-33.941 0z"></path><circle cx="323.232" cy="196.85" r="12" fill="#463c4b"></circle><circle cx="362.83" cy="236.448" r="12" fill="#463c4b"></circle>
<path fill="#af1d38" d="M436.575 259.281 300.399 123.105a7.708 7.708 0 0 0-10.902 0l-.412.412a7.708 7.708 0 0 0 0 10.902l136.176 136.176a7.708 7.708 0 0 0 10.902 0l.412-.412a7.71 7.71 0 0 0 0-10.902z"></path>
<path fill="#c9363c" d="m478.31 121.289-.003-.003c3.305-10.93.642-23.278-7.997-31.917s-20.987-11.302-31.917-7.997l-.003-.003-137.992 41.736 136.176 136.176 41.736-137.992z"></path>
<path fill="#af1d38" d="M463.74 128.054c-8.868-8.868-23.247-8.868-32.115 0l-63.138 63.138 68.088 68.088 32.845-108.597a22.703 22.703 0 0 0-5.68-22.629z"></path>
<path fill="#4182c3" d="M344 400c-13.255 0-24-10.745-24-24v-45.333c0-13.255 10.745-24 24-24s24 10.745 24 24V376c0 13.255-10.745 24-24 24z"></path>
<path fill="#fab991" d="M376 304h-32c-13.255 0-24 10.745-24 24v24h56c13.255 0 24-10.745 24-24s-10.745-24-24-24zM176 240h-16c-8.837 0-16-7.163-16-16v-16h48v16c0 8.837-7.163 16-16 16z"></path>
</g>
</svg>